PathFileType	4	(X/Y/Z)	c:/Users/goper/Files/vsCode/490R/osim_files/C15/C15_Fast_07.trc
DataRate	CameraRate	NumFrames	NumMarkers	Units                	OrigDataRate	OrigDataStartFrame	OrigNumFrames
250.00	250.00	5	36	mm	250.0	2215	2531
                Frame#	Time	LPSIS			LASIS			LTH1			LTH2			LTH3			LTH4			LLFE			LMFE			LSH1			LSH2			LSH3			LSH4			LLMAL			LMMAL			LCAL			LMTP5			LTOE			LMTP1			RPSIS			RASIS			RTH1			RTH2			RTH3			RTH4			RLFE			RMFE			RSH1			RSH2			RSH3			RSH4			RLMAL			RMMAL			RCAL			RMTP1			RTOE			RMTP5		
		X1	Y1	Z1	X2	Y2	Z2	X3	Y3	Z3	X4	Y4	Z4	X5	Y5	Z5	X6	Y6	Z6	X7	Y7	Z7	X8	Y8	Z8	X9	Y9	Z9	X10	Y10	Z10	X11	Y11	Z11	X12	Y12	Z12	X13	Y13	Z13	X14	Y14	Z14	X15	Y15	Z15	X16	Y16	Z16	X17	Y17	Z17	X18	Y18	Z18	X19	Y19	Z19	X20	Y20	Z20	X21	Y21	Z21	X22	Y22	Z22	X23	Y23	Z23	X24	Y24	Z24	X25	Y25	Z25	X26	Y26	Z26	X27	Y27	Z27	X28	Y28	Z28	X29	Y29	Z29	X30	Y30	Z30	X31	Y31	Z31	X32	Y32	Z32	X33	Y33	Z33	X34	Y34	Z34	X35	Y35	Z35	X36	Y36	Z36

2215	8.85600	0.00000	0.00000	0.00000	-4218.24170	1015.83331	323.85709	0.00000	0.00000	0.00000	0.00000	0.00000	0.00000	0.00000	0.00000	0.00000	0.00000	0.00000	0.00000	0.00000	0.00000	0.00000	0.00000	0.00000	0.00000	0.00000	0.00000	0.00000	-4207.99316	394.57846	57.20098	0.00000	0.00000	0.00000	0.00000	0.00000	0.00000	0.00000	0.00000	0.00000	0.00000	0.00000	0.00000	0.00000	0.00000	0.00000	0.00000	0.00000	0.00000	-4198.18555	353.99017	54.46841	0.00000	0.00000	0.00000	0.00000	0.00000	0.00000	-4225.06836	1018.18683	75.75595	0.00000	0.00000	0.00000	0.00000	0.00000	0.00000	-4267.38135	652.32397	42.14919	-4265.54590	604.50110	49.14050	-4229.09180	510.62341	72.83900	0.00000	0.00000	0.00000	0.00000	0.00000	0.00000	-752.06976	734.71759	2361.55322	0.00000	0.00000	0.00000	0.00000	0.00000	0.00000	0.00000	0.00000	0.00000	0.00000	0.00000	0.00000	0.00000	0.00000	0.00000	0.00000	0.00000	0.00000	0.00000	0.00000	0.00000	0.00000	0.00000	0.00000
2216	8.86000	0.00000	0.00000	0.00000	-4222.78760	1016.64380	323.14334	0.00000	0.00000	0.00000	0.00000	0.00000	0.00000	0.00000	0.00000	0.00000	0.00000	0.00000	0.00000	0.00000	0.00000	0.00000	0.00000	0.00000	0.00000	0.00000	0.00000	0.00000	-4208.49414	394.60385	57.05068	0.00000	0.00000	0.00000	0.00000	0.00000	0.00000	0.00000	0.00000	0.00000	0.00000	0.00000	0.00000	0.00000	0.00000	0.00000	0.00000	0.00000	0.00000	-4198.58398	354.05060	54.34045	0.00000	0.00000	0.00000	0.00000	0.00000	0.00000	-4228.87695	1018.54724	75.08721	0.00000	0.00000	0.00000	0.00000	0.00000	0.00000	-4269.26562	652.15320	41.95878	-4267.16797	604.33221	48.97686	-4230.03809	510.62268	72.59675	0.00000	0.00000	0.00000	0.00000	0.00000	0.00000	-752.09100	734.76025	2361.55737	0.00000	0.00000	0.00000	0.00000	0.00000	0.00000	0.00000	0.00000	0.00000	0.00000	0.00000	0.00000	0.00000	0.00000	0.00000	0.00000	0.00000	0.00000	0.00000	0.00000	0.00000	0.00000	0.00000	0.00000
2217	8.86400	0.00000	0.00000	0.00000	-4227.29736	1017.45496	322.44159	0.00000	0.00000	0.00000	0.00000	0.00000	0.00000	0.00000	0.00000	0.00000	0.00000	0.00000	0.00000	0.00000	0.00000	0.00000	0.00000	0.00000	0.00000	0.00000	0.00000	0.00000	-4208.98389	394.58459	56.91195	0.00000	0.00000	0.00000	0.00000	0.00000	0.00000	0.00000	0.00000	0.00000	0.00000	0.00000	0.00000	0.00000	0.00000	0.00000	0.00000	0.00000	0.00000	-4199.03369	354.12903	54.23354	0.00000	0.00000	0.00000	0.00000	0.00000	0.00000	-4232.65430	1018.86462	74.39664	0.00000	0.00000	0.00000	0.00000	0.00000	0.00000	-4271.12988	652.00702	41.81280	-4268.72705	604.16724	48.88086	-4230.95752	510.59628	72.35350	0.00000	0.00000	0.00000	0.00000	0.00000	0.00000	-752.08746	734.76379	2361.55762	0.00000	0.00000	0.00000	0.00000	0.00000	0.00000	0.00000	0.00000	0.00000	0.00000	0.00000	0.00000	0.00000	0.00000	0.00000	0.00000	0.00000	0.00000	0.00000	0.00000	0.00000	0.00000	0.00000	0.00000
2218	8.86800	0.00000	0.00000	0.00000	-4231.85205	1018.23975	321.74341	0.00000	0.00000	0.00000	0.00000	0.00000	0.00000	0.00000	0.00000	0.00000	0.00000	0.00000	0.00000	0.00000	0.00000	0.00000	0.00000	0.00000	0.00000	0.00000	0.00000	0.00000	-4209.54102	394.61954	56.79089	0.00000	0.00000	0.00000	0.00000	0.00000	0.00000	0.00000	0.00000	0.00000	0.00000	0.00000	0.00000	0.00000	0.00000	0.00000	0.00000	0.00000	0.00000	-4199.48535	354.17087	54.11464	0.00000	0.00000	0.00000	0.00000	0.00000	0.00000	-4236.41699	1019.13855	73.74497	0.00000	0.00000	0.00000	0.00000	0.00000	0.00000	-4272.99219	651.82556	41.64791	-4270.31250	604.00568	48.76979	-4231.84570	510.53275	72.13777	0.00000	0.00000	0.00000	0.00000	0.00000	0.00000	-752.16504	734.77124	2361.57227	0.00000	0.00000	0.00000	0.00000	0.00000	0.00000	0.00000	0.00000	0.00000	0.00000	0.00000	0.00000	0.00000	0.00000	0.00000	0.00000	0.00000	0.00000	0.00000	0.00000	0.00000	0.00000	0.00000	0.00000
2219	8.87200	0.00000	0.00000	0.00000	-4236.35742	1018.94891	321.08197	0.00000	0.00000	0.00000	0.00000	0.00000	0.00000	0.00000	0.00000	0.00000	0.00000	0.00000	0.00000	0.00000	0.00000	0.00000	0.00000	0.00000	0.00000	0.00000	0.00000	0.00000	-4210.13916	394.66754	56.66133	0.00000	0.00000	0.00000	0.00000	0.00000	0.00000	0.00000	0.00000	0.00000	0.00000	0.00000	0.00000	0.00000	0.00000	0.00000	0.00000	0.00000	0.00000	-4199.94824	354.18866	53.99578	0.00000	0.00000	0.00000	0.00000	0.00000	0.00000	-4240.17383	1019.33130	73.09745	0.00000	0.00000	0.00000	0.00000	0.00000	0.00000	-4274.83447	651.68103	41.51129	-4271.88867	603.84448	48.62705	-4232.80322	510.52417	71.89005	0.00000	0.00000	0.00000	0.00000	0.00000	0.00000	-752.16827	734.77142	2361.53662	0.00000	0.00000	0.00000	0.00000	0.00000	0.00000	0.00000	0.00000	0.00000	0.00000	0.00000	0.00000	0.00000	0.00000	0.00000	0.00000	0.00000	0.00000	0.00000	0.00000	0.00000	0.00000	0.00000	0.00000
